<?xml version="1.0" standalone="no"?>
<!DOCTYPE svg PUBLIC "-//W3C//DTD SVG 20010904//EN"
 "http://www.w3.org/TR/2001/REC-SVG-20010904/DTD/svg10.dtd">
<svg version="1.0" xmlns="http://www.w3.org/2000/svg"
 width="260.000000pt" height="260.000000pt" viewBox="0 0 260.000000 260.000000"
 preserveAspectRatio="xMidYMid meet">
<metadata>
Created by potrace 1.11, written by Peter Selinger 2001-2013
</metadata>
<g transform="translate(0.000000,260.000000) scale(0.100000,-0.100000)"
fill="#000000" stroke="none">
<path d="M642 2577 c-34 -36 -42 -80 -42 -219 l0 -126 -130 -4 c-139 -3 -175
-15 -136 -44 15 -10 51 -14 138 -14 l118 0 0 -89 c0 -127 -28 -911 -40 -1136
-22 -383 -58 -696 -96 -812 l-17 -53 -219 0 -218 0 0 -40 0 -40 234 0 235 0
20 26 c93 119 144 656 177 1897 7 233 8 247 26 247 10 0 20 -6 22 -12 3 -7 12
-186 21 -398 44 -1062 99 -1580 181 -1721 l20 -34 120 -3 c65 -1 129 0 141 3
67 16 121 282 153 750 9 136 40 863 40 943 0 29 3 33 23 30 22 -3 22 -6 34
-233 48 -919 91 -1298 166 -1445 l23 -45 123 -3 122 -3 29 31 c80 85 122 333
151 890 19 348 26 338 64 -95 40 -440 80 -658 140 -761 38 -65 38 -65 189 -62
l136 3 -26 38 -27 37 -98 0 -99 0 -20 41 c-50 98 -86 311 -125 749 -14 157
-28 296 -31 310 -8 37 -44 70 -75 70 -71 0 -84 -28 -93 -195 -30 -569 -64
-836 -122 -947 l-15 -29 -91 3 -91 3 -17 51 c-40 116 -77 396 -105 789 -21
309 -45 787 -39 797 3 4 57 8 120 8 108 0 154 9 154 29 0 19 -68 31 -171 31
l-108 0 -5 53 c-3 28 -8 93 -11 144 -3 50 -10 106 -16 123 -14 39 -58 64 -93
50 -45 -17 -57 -58 -63 -220 l-6 -148 -127 -4 c-91 -2 -132 -7 -144 -17 -31
-26 1 -36 136 -41 l131 -5 -2 -105 c-1 -58 -8 -262 -16 -455 -22 -511 -50
-816 -92 -985 -25 -104 -20 -100 -127 -100 -93 0 -94 0 -104 27 -72 182 -129
820 -168 1881 l-7 182 120 0 c88 0 124 4 139 14 39 29 3 41 -135 44 l-128 4
-7 129 c-4 71 -11 143 -16 160 -13 44 -48 79 -80 79 -15 0 -36 -10 -48 -23z
m61 -169 c11 -137 9 -178 -8 -178 -13 0 -15 21 -15 130 0 72 4 130 9 130 4 0
11 -37 14 -82z m722 -485 l8 -133 -23 0 c-21 0 -22 3 -16 46 3 26 6 90 6 142
0 140 17 102 25 -55z"/>
<path d="M2040 1583 c-25 -13 -39 -29 -49 -59 -13 -37 -12 -44 5 -80 40 -82
156 -80 190 3 40 95 -54 183 -146 136z m80 -68 c26 -32 -13 -81 -47 -59 -35
22 -23 74 17 74 10 0 23 -7 30 -15z"/>
</g>
</svg>
